<!-- Made by tools/make-icons.js from img/icon-pixels.txt. Edit that file, not this one! -->
<svg xmlns="http://www.w3.org/2000/svg" viewBox="0 0 16 16" shape-rendering="crispEdges">
  <rect x="0" y="0" width="3" height="1" fill="#5dbb3f"/>
  <rect x="3" y="0" width="1" height="1" fill="#3f8a2a"/>
  <rect x="4" y="0" width="6" height="1" fill="#5dbb3f"/>
  <rect x="10" y="0" width="1" height="1" fill="#3f8a2a"/>
  <rect x="11" y="0" width="5" height="1" fill="#5dbb3f"/>
  <rect x="0" y="1" width="6" height="1" fill="#5dbb3f"/>
  <rect x="6" y="1" width="1" height="1" fill="#3f8a2a"/>
  <rect x="7" y="1" width="6" height="1" fill="#5dbb3f"/>
  <rect x="13" y="1" width="1" height="1" fill="#3f8a2a"/>
  <rect x="14" y="1" width="2" height="1" fill="#5dbb3f"/>
  <rect x="0" y="2" width="1" height="1" fill="#5dbb3f"/>
  <rect x="1" y="2" width="1" height="1" fill="#3f8a2a"/>
  <rect x="2" y="2" width="14" height="1" fill="#5dbb3f"/>
  <rect x="0" y="3" width="5" height="1" fill="#5dbb3f"/>
  <rect x="5" y="3" width="1" height="1" fill="#3f8a2a"/>
  <rect x="6" y="3" width="4" height="1" fill="#5dbb3f"/>
  <rect x="10" y="3" width="1" height="1" fill="#3f8a2a"/>
  <rect x="11" y="3" width="3" height="1" fill="#5dbb3f"/>
  <rect x="14" y="3" width="1" height="1" fill="#3f8a2a"/>
  <rect x="15" y="3" width="1" height="1" fill="#5dbb3f"/>
  <rect x="0" y="4" width="1" height="1" fill="#8b5a2b"/>
  <rect x="1" y="4" width="2" height="1" fill="#5dbb3f"/>
  <rect x="3" y="4" width="1" height="1" fill="#8b5a2b"/>
  <rect x="4" y="4" width="3" height="1" fill="#5dbb3f"/>
  <rect x="7" y="4" width="1" height="1" fill="#8b5a2b"/>
  <rect x="8" y="4" width="4" height="1" fill="#5dbb3f"/>
  <rect x="12" y="4" width="1" height="1" fill="#8b5a2b"/>
  <rect x="13" y="4" width="2" height="1" fill="#5dbb3f"/>
  <rect x="15" y="4" width="1" height="1" fill="#8b5a2b"/>
  <rect x="0" y="5" width="2" height="1" fill="#8b5a2b"/>
  <rect x="2" y="5" width="1" height="1" fill="#5dbb3f"/>
  <rect x="3" y="5" width="6" height="1" fill="#8b5a2b"/>
  <rect x="9" y="5" width="1" height="1" fill="#5dbb3f"/>
  <rect x="10" y="5" width="4" height="1" fill="#8b5a2b"/>
  <rect x="14" y="5" width="1" height="1" fill="#5dbb3f"/>
  <rect x="15" y="5" width="1" height="1" fill="#8b5a2b"/>
  <rect x="0" y="6" width="5" height="1" fill="#8b5a2b"/>
  <rect x="5" y="6" width="1" height="1" fill="#5e3b1a"/>
  <rect x="6" y="6" width="6" height="1" fill="#8b5a2b"/>
  <rect x="12" y="6" width="1" height="1" fill="#5e3b1a"/>
  <rect x="13" y="6" width="3" height="1" fill="#8b5a2b"/>
  <rect x="0" y="7" width="1" height="1" fill="#8b5a2b"/>
  <rect x="1" y="7" width="1" height="1" fill="#5e3b1a"/>
  <rect x="2" y="7" width="4" height="1" fill="#8b5a2b"/>
  <rect x="6" y="7" width="5" height="1" fill="#ffffff"/>
  <rect x="11" y="7" width="5" height="1" fill="#8b5a2b"/>
  <rect x="0" y="8" width="5" height="1" fill="#8b5a2b"/>
  <rect x="5" y="8" width="6" height="1" fill="#ffffff"/>
  <rect x="11" y="8" width="1" height="1" fill="#3b2412"/>
  <rect x="12" y="8" width="2" height="1" fill="#8b5a2b"/>
  <rect x="14" y="8" width="1" height="1" fill="#5e3b1a"/>
  <rect x="15" y="8" width="1" height="1" fill="#8b5a2b"/>
  <rect x="0" y="9" width="5" height="1" fill="#8b5a2b"/>
  <rect x="5" y="9" width="2" height="1" fill="#ffffff"/>
  <rect x="7" y="9" width="5" height="1" fill="#3b2412"/>
  <rect x="12" y="9" width="4" height="1" fill="#8b5a2b"/>
  <rect x="0" y="10" width="2" height="1" fill="#8b5a2b"/>
  <rect x="2" y="10" width="1" height="1" fill="#5e3b1a"/>
  <rect x="3" y="10" width="2" height="1" fill="#8b5a2b"/>
  <rect x="5" y="10" width="2" height="1" fill="#ffffff"/>
  <rect x="7" y="10" width="1" height="1" fill="#3b2412"/>
  <rect x="8" y="10" width="8" height="1" fill="#8b5a2b"/>
  <rect x="0" y="11" width="5" height="1" fill="#8b5a2b"/>
  <rect x="5" y="11" width="2" height="1" fill="#ffffff"/>
  <rect x="7" y="11" width="1" height="1" fill="#3b2412"/>
  <rect x="8" y="11" width="5" height="1" fill="#8b5a2b"/>
  <rect x="13" y="11" width="1" height="1" fill="#5e3b1a"/>
  <rect x="14" y="11" width="2" height="1" fill="#8b5a2b"/>
  <rect x="0" y="12" width="5" height="1" fill="#8b5a2b"/>
  <rect x="5" y="12" width="6" height="1" fill="#ffffff"/>
  <rect x="11" y="12" width="1" height="1" fill="#3b2412"/>
  <rect x="12" y="12" width="4" height="1" fill="#8b5a2b"/>
  <rect x="0" y="13" width="1" height="1" fill="#8b5a2b"/>
  <rect x="1" y="13" width="1" height="1" fill="#5e3b1a"/>
  <rect x="2" y="13" width="4" height="1" fill="#8b5a2b"/>
  <rect x="6" y="13" width="5" height="1" fill="#ffffff"/>
  <rect x="11" y="13" width="1" height="1" fill="#3b2412"/>
  <rect x="12" y="13" width="4" height="1" fill="#8b5a2b"/>
  <rect x="0" y="14" width="6" height="1" fill="#8b5a2b"/>
  <rect x="6" y="14" width="5" height="1" fill="#3b2412"/>
  <rect x="11" y="14" width="3" height="1" fill="#8b5a2b"/>
  <rect x="14" y="14" width="1" height="1" fill="#5e3b1a"/>
  <rect x="15" y="14" width="1" height="1" fill="#8b5a2b"/>
  <rect x="0" y="15" width="3" height="1" fill="#8b5a2b"/>
  <rect x="3" y="15" width="1" height="1" fill="#5e3b1a"/>
  <rect x="4" y="15" width="12" height="1" fill="#8b5a2b"/>
</svg>
